<svg width="87" height="42" viewBox="0 0 87 42" fill="none" xmlns="http://www.w3.org/2000/svg">
<path d="M44.7998 22.6956C42.3504 18.1509 34.3358 16.5314 26.8963 19.1035C19.4569 21.6756 15.3889 27.4465 17.8434 32.0023C20.2928 36.547 28.3073 38.1665 35.7468 35.5944C43.1914 33.0334 47.2359 27.2598 44.7998 22.6956Z" stroke="#9FF74F" stroke-width="6"/>
<path d="M63.6729 22.6956C61.2234 18.1509 53.2089 16.5314 45.7694 19.1035C38.3299 21.6756 34.2619 27.4465 36.7164 32.0023C39.1658 36.547 47.1804 38.1665 54.6199 35.5944C62.0644 33.0334 66.1089 27.2598 63.6729 22.6956Z" stroke="#9FF74F" stroke-width="6"/>
<path d="M82.5498 22.6956C80.1004 18.1509 72.0858 16.5314 64.6463 19.1035C57.2069 21.6756 53.1389 27.4465 55.5934 32.0023C58.0428 36.547 66.0573 38.1665 73.4968 35.5944C80.9414 33.0334 84.9859 27.2598 82.5498 22.6956Z" stroke="#9FF74F" stroke-width="6"/>
<path d="M0 3.00006H29.5879V11.5001C20 11.5001 8.5 21.5001 8.5 39.0001" stroke="#9FF74F" stroke-width="6"/>
</svg>
