<svg width="63" height="51" viewBox="0 0 63 51" fill="none" xmlns="http://www.w3.org/2000/svg">
<path d="M53.6521 39.3923C55.1699 39.3923 56.4004 38.1619 56.4004 36.644C56.4004 35.1262 55.1699 33.8957 53.6521 33.8957V39.3923ZM53.6521 31.9671C55.1699 31.9671 56.4004 30.7367 56.4004 29.2188C56.4004 27.701 55.1699 26.4705 53.6521 26.4705V31.9671ZM53.6521 33.8957H15.5134V39.3923H53.6521V33.8957ZM15.5134 31.9671H53.6521V26.4705H15.5134V31.9671ZM14.5491 32.9314C14.5491 32.3988 14.9808 31.9671 15.5134 31.9671V26.4705C11.9451 26.4705 9.05248 29.3632 9.05248 32.9314H14.5491ZM15.5134 33.8957C14.9808 33.8957 14.5491 33.464 14.5491 32.9314H9.05248C9.05248 36.4997 11.9451 39.3923 15.5134 39.3923V33.8957Z" fill="#9FF74F"/>
<path d="M48.2493 27.001L48.2493 40.5015M44.1992 27.001L44.1992 40.5015" stroke="#1E1E1E" stroke-width="0.675021"/>
<path d="M53.6521 16.056C55.1699 16.056 56.4004 14.8256 56.4004 13.3077C56.4004 11.7899 55.1699 10.5594 53.6521 10.5594V16.056ZM53.6521 8.63081C55.1699 8.63081 56.4004 7.40035 56.4004 5.88251C56.4004 4.36466 55.1699 3.13421 53.6521 3.13421V8.63081ZM53.6521 10.5594H15.5134V16.056H53.6521V10.5594ZM15.5134 8.63081H53.6521V3.13421H15.5134V8.63081ZM14.5491 9.59512C14.5491 9.06254 14.9808 8.63081 15.5134 8.63081V3.13421C11.9451 3.13421 9.05248 6.02686 9.05248 9.59512H14.5491ZM15.5134 10.5594C14.9808 10.5594 14.5491 10.1277 14.5491 9.59512H9.05248C9.05248 13.1634 11.9451 16.056 15.5134 16.056V10.5594Z" fill="#9FF74F"/>
<path d="M48.2486 6.10352e-05L48.2486 14.8505M44.1992 6.10352e-05L44.1992 14.8505" stroke="#1E1E1E" stroke-width="0.675021"/>
<path d="M11.7991 14.8024C10.2813 14.8024 9.05081 16.0328 9.05081 17.5507C9.05081 19.0685 10.2813 20.299 11.7991 20.299L11.7991 14.8024ZM11.7991 22.2276C10.2813 22.2276 9.05081 23.458 9.05081 24.9759C9.05081 26.4937 10.2813 27.7242 11.7991 27.7242L11.7991 22.2276ZM11.7991 20.299L49.9378 20.299L49.9378 14.8024L11.7991 14.8024L11.7991 20.299ZM49.9378 22.2276L11.7991 22.2276L11.7991 27.7242L49.9378 27.7242L49.9378 22.2276ZM50.9021 21.2633C50.9021 21.7959 50.4704 22.2276 49.9378 22.2276L49.9378 27.7242C53.506 27.7242 56.3987 24.8315 56.3987 21.2633L50.9021 21.2633ZM49.9378 20.299C50.4704 20.299 50.9021 20.7307 50.9021 21.2633L56.3987 21.2633C56.3987 17.695 53.5061 14.8024 49.9378 14.8024L49.9378 20.299Z" fill="#9FF74F"/>
<path d="M21.2493 13.5004L21.2493 28.3509M17.1992 13.5004L17.1992 28.3509" stroke="#1E1E1E" stroke-width="0.675021"/>
<path d="M1 41.3693C1 40.6237 1.60443 40.0192 2.35004 40.0192H60.4018C61.1474 40.0192 61.7519 40.6237 61.7519 41.3693V44.0693C61.7519 44.815 61.1474 45.4194 60.4018 45.4194H58.6748C58.0937 45.4194 57.5778 45.7912 57.394 46.3425L56.6594 48.5464C56.4756 49.0977 55.9597 49.4695 55.3786 49.4695H53.2746C52.6935 49.4695 52.1776 49.0977 51.9939 48.5464L51.2592 46.3425C51.0755 45.7912 50.5596 45.4194 49.9785 45.4194H12.7734C12.1923 45.4194 11.6764 45.7912 11.4926 46.3425L10.758 48.5464C10.5742 49.0977 10.0583 49.4695 9.47724 49.4695H7.37322C6.79212 49.4695 6.27622 49.0977 6.09246 48.5464L5.35783 46.3425C5.17407 45.7912 4.65817 45.4194 4.07707 45.4194H2.35004C1.60443 45.4194 1 44.815 1 44.0694V41.3693Z" stroke="#9FF74F" stroke-width="1.35004"/>
</svg>
