<svg width="109" height="41" viewBox="0 0 109 41" fill="none" xmlns="http://www.w3.org/2000/svg">
<path d="M29.4413 27.3423L35.9768 40.2735H26.7269C23.1146 33.0623 29.4413 27.3423 29.4413 27.3423ZM49.4447 0.834473C44.6631 0.834473 39.2133 1.52443 30.0677 11.0058C29.0446 12.0741 26.8521 14.3443 24.2421 17.0374L20.0243 8.71337H10.7743L18.1659 23.3361C13.5722 28.099 9.47969 32.3501 9.47969 32.3501C4.63545 37.3801 2.61004 39.0271 0.125277 39.9174C0.0835163 40.0286 0.0417607 40.1399 0 40.2735H2.56827C5.38712 40.2735 13.3634 40.2735 22.6552 30.3692C30.0468 22.4903 36.0813 16.0581 42.9509 8.73563C47.7116 3.66108 51.2404 1.83603 52.9735 1.19058L53.0987 0.856731H49.4447V0.834473Z" fill="#38DE4F"/>
<path d="M39.6738 40.2736L49.0909 12.6752H70.1383L67.7788 19.5748H54.833L52.912 25.1835H64.0412L61.807 31.727H50.6778L47.7545 40.2736H39.6738Z" fill="white"/>
<path d="M64.416 40.2736L73.8331 12.6752H81.9137L72.4967 40.2736H64.416Z" fill="white"/>
<path d="M83.2715 19.5748L85.631 12.6752H108.829L106.47 19.5748H99.245L92.1665 40.2736H84.0649L91.1434 19.5748H83.2715Z" fill="white"/>
</svg>
